# xmcd
#
# Track frame offsets: 
#        150
#        14292
#        28595
#        41087
#        55592
#        69354
#        81260
#        94484
#        107779
#        122160
#        135081
#        149344
#        160068
#        173650
#        188714
#        202910
#        216837
#        228826
#        242502
#        255005
#        265992
#
# Disc length: 3718 seconds
#
# Revision: 0
# Processed by: cddbd v1.5.2PL0 Copyright (c) Steve Scherf et al.
# Submitted via: ExactAudioCopy v0.95a3
#
DISCID=110e8415
DTITLE=Jimmie Lunceford - Classic Jazz Archive CD 2
DYEAR=1900
DGENRE=Swing
TTITLE0=Runnin' Wild
TTITLE1=Four Or Five Times
TTITLE2=Swanee River
TTITLE3=My Blue Heaven
TTITLE4=The Melody Man
TTITLE5=Organ Grinder's Swing
TTITLE6=Muddy Water (A Mississippi Moan)
TTITLE7=Harlem Shout
TTITLE8=Coquette
TTITLE9=The Merry-Go-Round Broke Down
TTITLE10=I dream a lot about you
TTITLE11=Keep Smilin', Keep Laughin', Be Happy
TTITLE12=Easy Street
TTITLE13=I'm losing my mind (because of you)
TTITLE14=It had to be you
TTITLE15=I'm in a jam with baby
TTITLE16=Life is fine
TTITLE17=Baby, are you kiddin'?
TTITLE18=The Honeydripper
TTITLE19=Buzz-buzz-buzz
TTITLE20=That someone must be you
EXTD=
EXTT0=
EXTT1=
EXTT2=
EXTT3=
EXTT4=
EXTT5=
EXTT6=
EXTT7=
EXTT8=
EXTT9=
EXTT10=
EXTT11=
EXTT12=
EXTT13=
EXTT14=
EXTT15=
EXTT16=
EXTT17=
EXTT18=
EXTT19=
EXTT20=
PLAYORDER=
